TITLE ""
FILE "1Q_t_1059-1068.mp3" MP3
  TRACK 01 AUDIO
    TITLE "1Q_t_1059-1068_01"
    INDEX 01 00:00:00
  TRACK 02 AUDIO
    TITLE "1Q_t_1059-1068_02"
    INDEX 01 00:01:10
  TRACK 03 AUDIO
    TITLE "1Q_t_1059-1068_03"
    INDEX 01 00:01:18
  TRACK 04 AUDIO
    TITLE "1Q_t_1059-1068_04"
    INDEX 01 00:02:33
  TRACK 05 AUDIO
    TITLE "1Q_t_1059-1068_05"
    INDEX 01 00:02:43
  TRACK 06 AUDIO
    TITLE "1Q_t_1059-1068_06"
    INDEX 01 00:08:18
  TRACK 07 AUDIO
    TITLE "1Q_t_1059-1068_07"
    INDEX 01 00:08:63
  TRACK 08 AUDIO
    TITLE "1Q_t_1059-1068_08"
    INDEX 01 00:09:58
  TRACK 09 AUDIO
    TITLE "1Q_t_1059-1068_09"
    INDEX 01 00:09:68
  TRACK 10 AUDIO
    TITLE "1Q_t_1059-1068_10"
    INDEX 01 00:11:73
  TRACK 11 AUDIO
    TITLE "1Q_t_1059-1068_11"
    INDEX 01 00:12:06
  TRACK 12 AUDIO
    TITLE "1Q_t_1059-1068_12"
    INDEX 01 00:17:56
  TRACK 13 AUDIO
    TITLE "1Q_t_1059-1068_13"
    INDEX 01 00:18:26
  TRACK 14 AUDIO
    TITLE "1Q_t_1059-1068_14"
    INDEX 01 00:19:27
  TRACK 15 AUDIO
    TITLE "1Q_t_1059-1068_15"
    INDEX 01 00:19:33
  TRACK 16 AUDIO
    TITLE "1Q_t_1059-1068_16"
    INDEX 01 00:20:33
  TRACK 17 AUDIO
    TITLE "1Q_t_1059-1068_17"
    INDEX 01 00:20:40
  TRACK 18 AUDIO
    TITLE "1Q_t_1059-1068_18"
    INDEX 01 00:28:20
  TRACK 19 AUDIO
    TITLE "1Q_t_1059-1068_19"
    INDEX 01 00:28:67
  TRACK 20 AUDIO
    TITLE "1Q_t_1059-1068_20"
    INDEX 01 00:30:21
  TRACK 21 AUDIO
    TITLE "1Q_t_1059-1068_21"
    INDEX 01 00:30:29
  TRACK 22 AUDIO
    TITLE "1Q_t_1059-1068_22"
    INDEX 01 00:31:32
  TRACK 23 AUDIO
    TITLE "1Q_t_1059-1068_23"
    INDEX 01 00:31:40
  TRACK 24 AUDIO
    TITLE "1Q_t_1059-1068_24"
    INDEX 01 00:37:47
  TRACK 25 AUDIO
    TITLE "1Q_t_1059-1068_25"
    INDEX 01 00:38:19
  TRACK 26 AUDIO
    TITLE "1Q_t_1059-1068_26"
    INDEX 01 00:39:53
  TRACK 27 AUDIO
    TITLE "1Q_t_1059-1068_27"
    INDEX 01 00:39:61
  TRACK 28 AUDIO
    TITLE "1Q_t_1059-1068_28"
    INDEX 01 00:42:19
  TRACK 29 AUDIO
    TITLE "1Q_t_1059-1068_29"
    INDEX 01 00:42:22
  TRACK 30 AUDIO
    TITLE "1Q_t_1059-1068_30"
    INDEX 01 00:49:15
  TRACK 31 AUDIO
    TITLE "1Q_t_1059-1068_31"
    INDEX 01 00:49:62
  TRACK 32 AUDIO
    TITLE "1Q_t_1059-1068_32"
    INDEX 01 00:51:16
  TRACK 33 AUDIO
    TITLE "1Q_t_1059-1068_33"
    INDEX 01 00:51:21
  TRACK 34 AUDIO
    TITLE "1Q_t_1059-1068_34"
    INDEX 01 00:52:36
  TRACK 35 AUDIO
    TITLE "1Q_t_1059-1068_35"
    INDEX 01 00:52:42
  TRACK 36 AUDIO
    TITLE "1Q_t_1059-1068_36"
    INDEX 01 00:58:43
  TRACK 37 AUDIO
    TITLE "1Q_t_1059-1068_37"
    INDEX 01 00:59:13
  TRACK 38 AUDIO
    TITLE "1Q_t_1059-1068_38"
    INDEX 01 01:00:20
  TRACK 39 AUDIO
    TITLE "1Q_t_1059-1068_39"
    INDEX 01 01:00:28
  TRACK 40 AUDIO
    TITLE "1Q_t_1059-1068_40"
    INDEX 01 01:01:61
  TRACK 41 AUDIO
    TITLE "1Q_t_1059-1068_41"
    INDEX 01 01:01:67
  TRACK 42 AUDIO
    TITLE "1Q_t_1059-1068_42"
    INDEX 01 01:07:56
  TRACK 43 AUDIO
    TITLE "1Q_t_1059-1068_43"
    INDEX 01 01:08:26
  TRACK 44 AUDIO
    TITLE "1Q_t_1059-1068_44"
    INDEX 01 01:09:25
  TRACK 45 AUDIO
    TITLE "1Q_t_1059-1068_45"
    INDEX 01 01:09:33
  TRACK 46 AUDIO
    TITLE "1Q_t_1059-1068_46"
    INDEX 01 01:10:31
  TRACK 47 AUDIO
    TITLE "1Q_t_1059-1068_47"
    INDEX 01 01:10:36
  TRACK 48 AUDIO
    TITLE "1Q_t_1059-1068_48"
    INDEX 01 01:16:45
  TRACK 49 AUDIO
    TITLE "1Q_t_1059-1068_49"
    INDEX 01 01:17:13
  TRACK 50 AUDIO
    TITLE "1Q_t_1059-1068_50"
    INDEX 01 01:18:12
  TRACK 51 AUDIO
    TITLE "1Q_t_1059-1068_51"
    INDEX 01 01:18:22
  TRACK 52 AUDIO
    TITLE "1Q_t_1059-1068_52"
    INDEX 01 01:20:25
  TRACK 53 AUDIO
    TITLE "1Q_t_1059-1068_53"
    INDEX 01 01:20:31
  TRACK 54 AUDIO
    TITLE "1Q_t_1059-1068_54"
    INDEX 01 01:24:11
  TRACK 55 AUDIO
    TITLE "1Q_t_1059-1068_55"
    INDEX 01 01:24:56
  TRACK 56 AUDIO
    TITLE "1Q_t_1059-1068_56"
    INDEX 01 01:25:58
  TRACK 57 AUDIO
    TITLE "1Q_t_1059-1068_57"
    INDEX 01 01:25:65
  TRACK 58 AUDIO
    TITLE "1Q_t_1059-1068_58"
    INDEX 01 01:27:09
  TRACK 59 AUDIO
    TITLE "1Q_t_1059-1068_59"
    INDEX 01 01:27:15
  TRACK 60 AUDIO
    TITLE "1Q_t_1059-1068_60"
    INDEX 01 01:32:03
